<?xml version="1.0" standalone="no"?>
<!DOCTYPE svg PUBLIC "-//W3C//DTD SVG 20010904//EN"
 "http://www.w3.org/TR/2001/REC-SVG-20010904/DTD/svg10.dtd">
<svg version="1.0" xmlns="http://www.w3.org/2000/svg"
 width="512.000000pt" height="512.000000pt" viewBox="0 0 512.000000 512.000000"
 preserveAspectRatio="xMidYMid meet">
<metadata>
Created by potrace 1.16, written by Peter Selinger 2001-2019
</metadata>
<g transform="translate(0.000000,512.000000) scale(0.100000,-0.100000)"
fill="#fff" stroke="none">
<path d="M1022 4446 c-204 -50 -385 -228 -449 -442 -16 -54 -18 -146 -21
-1189 -2 -729 1 -1157 7 -1207 28 -212 151 -388 332 -477 147 -72 119 -71
1104 -71 855 0 881 1 912 20 72 44 62 160 -17 187 -26 9 -260 12 -912 12 -872
1 -878 1 -935 22 -113 42 -187 112 -240 225 l-28 59 0 1175 0 1175 23 58 c46
113 171 218 293 246 60 14 2268 14 2328 0 122 -28 247 -133 293 -246 l23 -58
5 -632 5 -633 26 -26 c31 -30 92 -41 129 -22 14 7 33 29 43 48 16 33 17 77 14
655 -3 552 -5 626 -20 679 -50 170 -176 322 -327 394 -47 22 -109 45 -138 51
-82 17 -2379 14 -2450 -3z"/>
<path d="M1970 3105 l0 -745 -83 0 c-135 0 -233 -37 -323 -122 -133 -126 -133
-310 0 -436 90 -85 191 -121 336 -122 154 0 264 43 354 140 87 95 86 87 86
637 l0 475 68 -8 c155 -16 261 -86 347 -229 62 -103 115 -314 115 -457 0 -32
4 -58 8 -58 11 0 78 126 107 205 44 115 58 200 58 340 0 252 -75 451 -231 617
-105 111 -234 189 -396 238 l-76 24 0 123 0 123 -185 0 -185 0 0 -745z"/>
<path d="M3614 2311 c-17 -10 -36 -34 -43 -52 -7 -21 -11 -152 -11 -400 l0
-369 -198 0 c-219 0 -240 -5 -228 -53 7 -28 633 -749 665 -767 22 -11 71 -13
95 -4 12 5 560 622 651 734 23 27 27 57 10 74 -14 14 -46 16 -215 16 l-199 0
-3 385 -3 385 -33 32 -32 33 -213 3 c-195 2 -215 1 -243 -17z"/>
</g>
</svg>
