<?xml version="1.0" standalone="no"?>
<!DOCTYPE svg PUBLIC "-//W3C//DTD SVG 20010904//EN"
 "http://www.w3.org/TR/2001/REC-SVG-20010904/DTD/svg10.dtd">
<svg version="1.0" xmlns="http://www.w3.org/2000/svg"
 width="512.000000pt" height="512.000000pt" viewBox="0 0 512.000000 512.000000"
 preserveAspectRatio="xMidYMid meet">
<metadata>
Created by potrace 1.16, written by Peter Selinger 2001-2019
</metadata>
<g transform="translate(0.000000,512.000000) scale(0.100000,-0.100000)"
fill="#fff" stroke="none">
<path d="M210 4881 c-80 -25 -147 -80 -187 -154 -26 -48 -25 -207 2 -262 26
-54 87 -113 144 -139 l46 -21 1985 0 1985 0 46 21 c57 26 118 85 144 139 27
55 28 214 2 262 -29 55 -78 103 -131 131 l-51 27 -1980 2 c-1089 1 -1991 -2
-2005 -6z"/>
<path d="M3640 4079 c-60 -12 -118 -54 -155 -114 l-30 -48 -3 -1269 c-1 -697
-4 -1268 -7 -1268 -2 0 -34 8 -72 17 -99 24 -342 24 -448 -1 -274 -63 -483
-226 -546 -426 -46 -147 -20 -301 74 -432 308 -428 1149 -403 1419 42 69 116
68 93 68 1104 0 499 2 906 5 906 3 0 29 -12 58 -26 250 -126 463 -347 562
-582 26 -63 26 -64 9 -114 -19 -59 -15 -148 10 -195 20 -39 70 -89 108 -109
43 -22 129 -29 182 -14 101 28 160 114 212 307 36 132 45 382 19 518 -47 255
-159 470 -339 651 -109 109 -193 167 -385 264 -129 65 -152 81 -225 154 -119
119 -178 230 -212 396 -9 47 -25 101 -35 121 -45 91 -157 139 -269 118z"/>
<path d="M208 3726 c-129 -35 -208 -143 -208 -286 0 -118 52 -204 154 -258
l51 -27 1312 -3 c1293 -2 1312 -2 1365 18 64 24 128 83 160 149 34 69 32 187
-4 256 -33 64 -80 108 -143 137 l-50 23 -1295 2 c-1024 1 -1305 -1 -1342 -11z"/>
<path d="M170 2559 c-60 -27 -117 -83 -146 -144 -32 -67 -33 -179 -3 -245 27
-60 83 -117 144 -146 l50 -24 1309 0 c944 0 1319 3 1346 11 64 19 131 78 165
144 26 50 30 70 30 135 0 65 -4 85 -30 135 -34 66 -101 125 -165 144 -27 8
-402 11 -1346 11 -1294 0 -1310 -1 -1354 -21z"/>
<path d="M210 1421 c-80 -25 -147 -80 -187 -154 -26 -48 -25 -207 2 -262 26
-54 87 -113 144 -139 46 -21 48 -21 876 -21 l830 0 49 24 c104 51 166 148 166
262 0 122 -49 208 -151 264 l-54 30 -825 2 c-454 1 -836 -2 -850 -6z"/>
</g>
</svg>
